<svg xmlns="http://www.w3.org/2000/svg" viewBox="127.5 122.5 120 120" width="500" height="500">
  <defs>
    <linearGradient id="grad" x1="0%" y1="0%" x2="100%" y2="100%">
        <stop offset="0%" stop-color="#0D9488" />
        <stop offset="100%" stop-color="#14B8A6" />
    </linearGradient>
  </defs>
  <rect x="127.5" y="122.5" width="120" height="120" fill="url(#grad)" />
  <g transform="translate(150.999986, 223.600063)">
    <path fill="#ffffff" d="M 70.3125 -79.640625 L 47.703125 -39.59375 L 68.640625 -2.546875 C 63.941406 0.0859375 59.566406 0.820312 55.515625 -0.34375 C 51.472656 -1.519531 48.132812 -4.425781 45.5 -9.0625 L 36.4375 -24.375 L 28.6875 -9.5 C 26.925781 -6.332031 24.722656 -3.941406 22.078125 -2.328125 C 19.441406 -0.710938 16.582031 0.09375 13.5 0.09375 C 10.425781 0.09375 7.332031 -0.785156 4.21875 -2.546875 L 25.171875 -39.59375 L 2.46875 -79.640625 C 7.21875 -82.273438 11.734375 -83.09375 16.015625 -82.09375 C 20.296875 -81.101562 23.640625 -78.46875 26.046875 -74.1875 L 36.4375 -54.734375 L 47.171875 -74.265625 C 49.578125 -78.554688 52.859375 -81.179688 57.015625 -82.140625 C 61.179688 -83.109375 65.613281 -82.273438 70.3125 -79.640625 Z M 70.3125 -79.640625" />
  </g>
  <g transform="translate(160.408588, 223.600063)">
    <path fill="#ffffff" d="M 70.3125 -79.640625 L 47.703125 -39.59375 L 68.640625 -2.546875 C 63.941406 0.0859375 59.566406 0.820312 55.515625 -0.34375 C 51.472656 -1.519531 48.132812 -4.425781 45.5 -9.0625 L 36.4375 -24.375 L 28.6875 -9.5 C 26.925781 -6.332031 24.722656 -3.941406 22.078125 -2.328125 C 19.441406 -0.710938 16.582031 0.09375 13.5 0.09375 C 10.425781 0.09375 7.332031 -0.785156 4.21875 -2.546875 L 25.171875 -39.59375 L 2.46875 -79.640625 C 7.21875 -82.273438 11.734375 -83.09375 16.015625 -82.09375 C 20.296875 -81.101562 23.640625 -78.46875 26.046875 -74.1875 L 36.4375 -54.734375 L 47.171875 -74.265625 C 49.578125 -78.554688 52.859375 -81.179688 57.015625 -82.140625 C 61.179688 -83.109375 65.613281 -82.273438 70.3125 -79.640625 Z M 70.3125 -79.640625" />
  </g>
</svg>
