<svg xmlns="http://www.w3.org/2000/svg" xmlns:xlink="http://www.w3.org/1999/xlink" width="500" zoomAndPan="magnify" viewBox="0 0 375 374.999991" height="500" preserveAspectRatio="xMidYMid meet" version="1.0"><defs><g/></defs><g fill="#ffffff" fill-opacity="1"><g transform="translate(45.499994, 223.600063)"><g><path d="M 50.34375 -27.71875 L 66.796875 -3.171875 C 63.972656 -1.296875 61.082031 -0.253906 58.125 -0.046875 C 55.164062 0.160156 52.363281 -0.394531 49.71875 -1.71875 C 47.082031 -3.039062 44.820312 -5.078125 42.9375 -7.828125 L 32.03125 -24.03125 L 23.765625 -24.03125 L 23.765625 -23.3125 C 23.765625 -19.03125 22.851562 -15.128906 21.03125 -11.609375 C 19.207031 -8.097656 16.785156 -5.285156 13.765625 -3.171875 C 10.742188 -1.054688 7.390625 0 3.703125 0 L 3.703125 -65.03125 C 3.703125 -67.664062 4.242188 -70.140625 5.328125 -72.453125 C 6.410156 -74.773438 7.875 -76.816406 9.71875 -78.578125 C 11.570312 -80.335938 13.625 -81.703125 15.875 -82.671875 C 18.132812 -83.640625 20.410156 -84.125 22.703125 -84.125 L 34.765625 -84.125 C 39.335938 -84.125 43.472656 -83.476562 47.171875 -82.1875 C 50.921875 -80.84375 54.117188 -78.910156 56.765625 -76.390625 C 59.398438 -73.859375 61.421875 -70.75 62.828125 -67.0625 C 64.234375 -63.414062 64.9375 -59.25 64.9375 -54.5625 L 64.9375 -54.390625 C 64.9375 -49.398438 64.144531 -45.023438 62.5625 -41.265625 C 61.039062 -37.453125 58.898438 -34.285156 56.140625 -31.765625 C 54.378906 -30.117188 52.445312 -28.769531 50.34375 -27.71875 Z M 23.765625 -64.6875 L 23.765625 -42.328125 L 33.359375 -42.328125 C 36.929688 -42.328125 39.742188 -43.320312 41.796875 -45.3125 C 43.796875 -47.25 44.796875 -49.921875 44.796875 -53.328125 L 44.796875 -53.59375 C 44.796875 -57.226562 43.796875 -59.984375 41.796875 -61.859375 C 39.742188 -63.742188 36.867188 -64.6875 33.171875 -64.6875 Z M 23.765625 -64.6875 "/></g></g></g><g fill="#ffffff" fill-opacity="1"><g transform="translate(115.192917, 223.600063)"><g><path d="M 63.453125 -75.5 C 64.273438 -74.207031 64.921875 -72.785156 65.390625 -71.234375 C 65.859375 -69.679688 66.09375 -68.054688 66.09375 -66.359375 L 66.09375 -16.890625 C 66.09375 -13.609375 65.269531 -10.691406 63.625 -8.140625 C 61.976562 -5.585938 59.757812 -3.519531 56.96875 -1.9375 C 54.1875 -0.351562 51.125 0.582031 47.78125 0.875 C 46.726562 1 45.203125 1.085938 43.203125 1.140625 C 41.210938 1.203125 39.191406 1.242188 37.140625 1.265625 C 35.085938 1.296875 33.472656 1.3125 32.296875 1.3125 C 30.597656 1.3125 28.953125 1.269531 27.359375 1.1875 C 25.773438 1.101562 24.253906 1 22.796875 0.875 C 20.273438 0.695312 17.882812 0.1875 15.625 -0.65625 C 13.363281 -1.507812 11.410156 -2.757812 9.765625 -4.40625 C 8.472656 -5.457031 7.59375 -6.570312 7.125 -7.75 C 6.25 -9.09375 5.578125 -10.539062 5.109375 -12.09375 C 4.640625 -13.65625 4.40625 -15.253906 4.40625 -16.890625 L 4.40625 -66.359375 C 4.40625 -69.640625 5.238281 -72.554688 6.90625 -75.109375 C 8.582031 -77.660156 10.796875 -79.726562 13.546875 -81.3125 C 16.304688 -82.894531 19.390625 -83.832031 22.796875 -84.125 C 26.015625 -84.476562 29.328125 -84.65625 32.734375 -84.65625 C 33.847656 -84.65625 35.398438 -84.625 37.390625 -84.5625 C 39.390625 -84.507812 41.367188 -84.453125 43.328125 -84.390625 C 45.296875 -84.328125 46.78125 -84.238281 47.78125 -84.125 C 50.300781 -83.945312 52.691406 -83.429688 54.953125 -82.578125 C 57.210938 -81.734375 59.164062 -80.488281 60.8125 -78.84375 C 62.101562 -77.789062 62.984375 -76.675781 63.453125 -75.5 Z M 47.78125 -22.53125 L 47.78125 -61.15625 C 47.550781 -62.5625 47.007812 -63.691406 46.15625 -64.546875 C 45.300781 -65.398438 44.144531 -65.828125 42.6875 -65.828125 L 27.8125 -65.90625 C 26.40625 -65.90625 25.257812 -65.460938 24.375 -64.578125 C 23.5 -63.703125 22.972656 -62.59375 22.796875 -61.25 L 22.796875 -22.53125 C 22.972656 -21.175781 23.5 -20.054688 24.375 -19.171875 C 25.257812 -18.296875 26.429688 -17.859375 27.890625 -17.859375 L 42.6875 -17.859375 C 44.144531 -17.859375 45.300781 -18.296875 46.15625 -19.171875 C 47.007812 -20.054688 47.550781 -21.175781 47.78125 -22.53125 Z M 47.78125 -22.53125 "/></g></g></g><g fill="#ffffff" fill-opacity="1"><g transform="translate(181.541923, 223.600063)"><g><path d="M 68.203125 -66.875 L 33.53125 -18.21875 L 69.171875 -18.21875 C 69.171875 -14.519531 68.378906 -11.332031 66.796875 -8.65625 C 65.210938 -5.988281 63.097656 -3.921875 60.453125 -2.453125 C 57.816406 -0.992188 54.941406 -0.265625 51.828125 -0.265625 L 2.109375 -0.265625 C 2.109375 -1.492188 2.328125 -2.867188 2.765625 -4.390625 C 3.210938 -5.921875 3.710938 -7.375 4.265625 -8.75 C 4.828125 -10.132812 5.328125 -11.265625 5.765625 -12.140625 C 6.203125 -13.023438 6.421875 -13.46875 6.421875 -13.46875 C 6.421875 -13.46875 6.566406 -13.773438 6.859375 -14.390625 C 7.148438 -15.003906 7.53125 -15.707031 8 -16.5 C 8.476562 -17.289062 8.921875 -17.953125 9.328125 -18.484375 C 10.679688 -20.296875 12.472656 -22.65625 14.703125 -25.5625 C 16.929688 -28.46875 19.332031 -31.648438 21.90625 -35.109375 C 24.488281 -38.566406 27.070312 -42 29.65625 -45.40625 C 32.238281 -48.8125 34.582031 -51.9375 36.6875 -54.78125 C 38.800781 -57.625 40.503906 -59.910156 41.796875 -61.640625 C 43.085938 -63.367188 43.734375 -64.234375 43.734375 -64.234375 L 8.890625 -64.234375 C 8.890625 -67.929688 9.632812 -71.097656 11.125 -73.734375 C 12.625 -76.378906 14.648438 -78.421875 17.203125 -79.859375 C 19.753906 -81.296875 22.585938 -82.015625 25.703125 -82.015625 L 73.125 -82.015625 C 73.125 -79.023438 72.671875 -76.296875 71.765625 -73.828125 C 70.859375 -71.367188 69.671875 -69.050781 68.203125 -66.875 Z M 68.203125 -66.875 "/></g></g></g><g fill="#ffffff" fill-opacity="1"><g transform="translate(256.954592, 223.600063)"><g><path d="M 70.3125 -79.640625 L 47.703125 -39.59375 L 68.640625 -2.546875 C 63.941406 0.0859375 59.566406 0.820312 55.515625 -0.34375 C 51.472656 -1.519531 48.132812 -4.425781 45.5 -9.0625 L 36.4375 -24.375 L 28.6875 -9.5 C 26.925781 -6.332031 24.722656 -3.941406 22.078125 -2.328125 C 19.441406 -0.710938 16.582031 0.09375 13.5 0.09375 C 10.425781 0.09375 7.332031 -0.785156 4.21875 -2.546875 L 25.171875 -39.59375 L 2.46875 -79.640625 C 7.21875 -82.273438 11.734375 -83.09375 16.015625 -82.09375 C 20.296875 -81.101562 23.640625 -78.46875 26.046875 -74.1875 L 36.4375 -54.734375 L 47.171875 -74.265625 C 49.578125 -78.554688 52.859375 -81.179688 57.015625 -82.140625 C 61.179688 -83.109375 65.613281 -82.273438 70.3125 -79.640625 Z M 70.3125 -79.640625 "/></g></g></g><g fill="#10b981" fill-opacity="1"><g transform="translate(264.499967, 223.600063)"><g><path d="M 70.3125 -79.640625 L 47.703125 -39.59375 L 68.640625 -2.546875 C 63.941406 0.0859375 59.566406 0.820312 55.515625 -0.34375 C 51.472656 -1.519531 48.132812 -4.425781 45.5 -9.0625 L 36.4375 -24.375 L 28.6875 -9.5 C 26.925781 -6.332031 24.722656 -3.941406 22.078125 -2.328125 C 19.441406 -0.710938 16.582031 0.09375 13.5 0.09375 C 10.425781 0.09375 7.332031 -0.785156 4.21875 -2.546875 L 25.171875 -39.59375 L 2.46875 -79.640625 C 7.21875 -82.273438 11.734375 -83.09375 16.015625 -82.09375 C 20.296875 -81.101562 23.640625 -78.46875 26.046875 -74.1875 L 36.4375 -54.734375 L 47.171875 -74.265625 C 49.578125 -78.554688 52.859375 -81.179688 57.015625 -82.140625 C 61.179688 -83.109375 65.613281 -82.273438 70.3125 -79.640625 Z M 70.3125 -79.640625 "/></g></g></g></svg>